/* XPM */
static char * kanainvaders_32x32_xpm[] = {
"32 32 104 2",
"  	c None",
". 	c #BCBCBC",
"+ 	c #8B8B8B",
"@ 	c #A9A9A9",
"# 	c #969696",
"$ 	c #B6B6B6",
"% 	c #A0A0A0",
"& 	c #9C9C9C",
"* 	c #909090",
"= 	c #AFAFAF",
"- 	c #9D9D9D",
"; 	c #9E9E9E",
"> 	c #949494",
", 	c #B7B7B7",
"' 	c #8F8F8F",
") 	c #AAAAAA",
"! 	c #B8B8B8",
"~ 	c #9F9F9F",
"{ 	c #8E8E8E",
"] 	c #ACACAC",
"^ 	c #959595",
"/ 	c #A7A7A7",
"( 	c #999999",
"_ 	c #B2B2B2",
": 	c #929292",
"< 	c #9D9999",
"[ 	c #9C9595",
"} 	c #989898",
"| 	c #AEAEAE",
"1 	c #9E9F9F",
"2 	c #936565",
"3 	c #8A3737",
"4 	c #9EA0A0",
"5 	c #A3A3A3",
"6 	c #926060",
"7 	c #882B2B",
"8 	c #9EA1A1",
"9 	c #9A9A9A",
"0 	c #9C9898",
"a 	c #872828",
"b 	c #892F2F",
"c 	c #919191",
"d 	c #A4A4A4",
"e 	c #987E7E",
"f 	c #7F0000",
"g 	c #893030",
"h 	c #9D9797",
"i 	c #872929",
"j 	c #926363",
"k 	c #7E0000",
"l 	c #872626",
"m 	c #9B8F8F",
"n 	c #9A8989",
"o 	c #810606",
"p 	c #800000",
"q 	c #800202",
"r 	c #A1A1A1",
"s 	c #9E9D9D",
"t 	c #988080",
"u 	c #800404",
"v 	c #800303",
"w 	c #862121",
"x 	c #9A8E8E",
"y 	c #9B9B9B",
"z 	c #9FA6A6",
"A 	c #8D4545",
"B 	c #926262",
"C 	c #979797",
"D 	c #9EA2A2",
"E 	c #988282",
"F 	c #8E4949",
"G 	c #8F5454",
"H 	c #ABAAAA",
"I 	c #998282",
"J 	c #893232",
"K 	c #800505",
"L 	c #851919",
"M 	c #977B7B",
"N 	c #9FA0A0",
"O 	c #988181",
"P 	c #831515",
"Q 	c #841818",
"R 	c #841A1A",
"S 	c #851F1F",
"T 	c #9B9292",
"U 	c #A6A6A6",
"V 	c #9D9C9C",
"W 	c #9D9B9B",
"X 	c #9F9E9E",
"Y 	c #9B9A9A",
"Z 	c #87A1A1",
"` 	c #6CA7A7",
" .	c #83BEBE",
"..	c #92ACAC",
"+.	c #A09F9F",
"@.	c #939393",
"#.	c #0BF4F4",
"$.	c #00FFFF",
"%.	c #0FF7F7",
"&.	c #A8A8A8",
"*.	c #A5A5A5",
"=.	c #B9B9B9",
"-.	c #8A8A8A",
";.	c #A2A2A2",
"                                                                ",
"                              . +                               ",
"                              @ #                               ",
"                            $ % & *                             ",
"                            = - ; >                             ",
"                          , ; - ; - '                           ",
"                          ) - ; - ; #                           ",
"                        ! ~ ; ; ; - - {                         ",
"                        ] - ; ; ; ; ; ^                         ",
"                      ! ; - ; ; ; ; ; - '                       ",
"                      / - ; ; ; ; ; ; ; (                       ",
"                    _ ~ ; ; ; ; ; ; ; - - :                     ",
"                    / - ; < [ ; ; [ < ; ; }                     ",
"                  | & ; 1 2 3 4 4 3 2 1 - ; >                   ",
"                  5 - ; 4 6 7 8 8 7 6 4 ; ; 9                   ",
"                _ ; ; ; 0 a b 8 8 b a 0 ; - - c                 ",
"                d - - ; e f g 8 8 g f e ; - ; 9                 ",
"              = & ; ; h i f g 8 8 g f i h ; - ; >               ",
"              5 - ; ; j k f l m m l f k j ; ; ; 9               ",
"            $ ; ; ; n o p p f q q f p p o n ; - - *             ",
"            r - s ; t u f v w x x w v f u t ; s ; y             ",
"          @ - - ; z A f f B [ 1 1 [ B f f A z ; ; - C           ",
"          % 1 D E F k f G D - ; ; - D G f k F E D 1 &           ",
"        H 8 I J K f L M ; ; ; ; ; ; ; ; M L f K J I D #         ",
"      ! N O P Q R S T 1 - ; ; ; ; ; ; - 1 T S R Q P O - '       ",
"      U - V W V V V ; - - ; ; X V - ; ; - ; V V V W V ; (       ",
"    , ~ ; ; ; ; - ; ; - & Y Z `  ...+.~ ; - - ; ; ; ; ; & *     ",
"    | - ; ; ; ; ; ; @.c '   #.$.$.%.  &./ *.; - - - ; ; ; ^     ",
"  =.& ; ; - y } @.-.        $.$.$.$.        ] *.;.~ ; - - ; {   ",
"  @ - 9 c c                 $.$.$.$.                / / % ; }   ",
"_ C {                                                     @ 5 @.",
"                                                                "};
