/* XPM */
static char * kanainvaders_16x16_xpm[] = {
"16 16 52 1",
" 	c None",
".	c #AAAAAA",
"+	c #959595",
"@	c #A0A0A0",
"#	c #9C9C9C",
"$	c #ADADAD",
"%	c #9E9E9E",
"&	c #9D9D9D",
"*	c #A2A2A2",
"=	c #9B9B9B",
"-	c #A8A8A8",
";	c #979797",
">	c #9F9F9F",
",	c #9C9494",
"'	c #ABABAB",
")	c #9D9E9E",
"!	c #977B7B",
"~	c #988181",
"{	c #969696",
"]	c #9EA3A3",
"^	c #882929",
"/	c #A5A5A5",
"(	c #9E9F9F",
"_	c #8F5454",
":	c #7F0000",
"<	c #862020",
"[	c #9EA0A0",
"}	c #999999",
"|	c #831111",
"1	c #988080",
"2	c #A7A8A8",
"3	c #987E7E",
"4	c #861D1D",
"5	c #872929",
"6	c #9B9090",
"7	c #987F7F",
"8	c #989898",
"9	c #9B9494",
"0	c #905656",
"a	c #925F5F",
"b	c #9E9D9D",
"c	c #9F9A9A",
"d	c #A19D9D",
"e	c #9D9C9C",
"f	c #9C9595",
"g	c #A3A3A3",
"h	c #8F9A9A",
"i	c #26E2E2",
"j	c #2BE7E7",
"k	c #9CA8A8",
"l	c #9A9A9A",
"m	c #00FFFF",
"                ",
"       .+       ",
"       @#       ",
"      $%&+      ",
"      *&%=      ",
"     -&%%%;     ",
"     >,,,,#     ",
"    ')!~~!%{    ",
"    %]^~~^]&    ",
"   /(_:<<:_[}   ",
"   @&<|11|<&)   ",
"  23456((65478  ",
"  90abbcdbea0f  ",
" g)[(}hijk*[(%l ",
" %={   mm   g>% ",
"                "};
